<svg width="100" height="100" viewBox="0 0 100 100" fill="none" xmlns="http://www.w3.org/2000/svg">
<path d="M20 93C17.24 93 15 90.76 15 88V20C15 17.24 17.24 15 20 15H55.11V47H77V88C77 90.76 74.76 93 72 93H20Z" fill="white"/>
<path d="M54.11 16V48H76V88C76 90.21 74.21 92 72 92H20C17.79 92 16 90.21 16 88V20C16 17.79 17.79 16 20 16H54.11ZM56.11 14H20C16.69 14 14 16.69 14 20V88C14 91.31 16.69 94 20 94H72C75.31 94 78 91.31 78 88V46H56.11V14Z" fill="#1D1D1B"/>
<path d="M28 85C25.24 85 23 82.76 23 80V12C23 9.24 25.24 7 28 7H61.59L85 30.41V80C85 82.76 82.76 85 80 85H28Z" fill="white"/>
<path d="M61.17 8L84 30.83V80C84 82.21 82.21 84 80 84H28C25.79 84 24 82.21 24 80V12C24 9.79 25.79 8 28 8H61.17ZM62 6H28C24.69 6 22 8.69 22 12V80C22 83.31 24.69 86 28 86H80C83.31 86 86 83.31 86 80V30L62 6Z" fill="#1D1D1B"/>
<path d="M84.67 30.0002H68C64.69 30.0002 62 27.3102 62 24.0002V7.16016" stroke="#1D1D1B" stroke-width="2" stroke-miterlimit="10"/>
<path d="M63 49H45C44.4477 49 44 49.4477 44 50C44 50.5523 44.4477 51 45 51H63C63.5523 51 64 50.5523 64 50C64 49.4477 63.5523 49 63 49Z" fill="#4258D7"/>
<path d="M63 49H45C44.45 49 44 49.45 44 50C44 50.55 44.45 51 45 51H63C63.55 51 64 50.55 64 50C64 49.45 63.55 49 63 49Z" fill="#4258D7"/>
<path d="M55 41C55 40.4477 54.5523 40 54 40C53.4477 40 53 40.4477 53 41V59C53 59.5523 53.4477 60 54 60C54.5523 60 55 59.5523 55 59V41Z" fill="#4258D7"/>
</svg>
