<svg width="108" height="60" viewBox="0 0 108 60" fill="none" xmlns="http://www.w3.org/2000/svg">
<path d="M31.8703 28.3762H12.7291V34.5109H33.0131C34.2415 34.5109 35.2316 33.513 35.2316 32.2885H15.6382V30.4824H34.7855V24.3477H12.668V26.5701H31.8764V28.3762H31.8703Z" fill="black"/>
<path d="M10.957 20.0822V22.3965H35.5863C36.118 22.3965 36.552 21.9618 36.552 21.4292V20.0822H25.209V17.7679H32.3167C33.6307 17.7679 34.6941 16.7026 34.6941 15.3863V9.44141H12.7905V17.7679H22.2755V20.0822H10.957ZM15.7301 15.4843V11.6945H31.7544V14.0026C31.7544 14.823 31.0944 15.4843 30.2755 15.4843H15.7301Z" fill="black"/>
<path d="M55.7289 22.8479V10.0703H41.2324V12.807H52.7587V20.1111H41.2935V33.2805H51.677C52.9298 33.2805 54.2193 33.1642 55.3989 32.956C57.1467 32.6438 58.3996 31.0887 58.3996 29.3132C56.8412 30.0662 54.201 30.5438 51.7686 30.5438H44.2637V22.8479H55.7289Z" fill="black"/>
<path d="M63.7417 33.5066V8.80859H60.7715V34.48H62.7761C63.3139 34.48 63.7478 34.0453 63.7478 33.5066H63.7417Z" fill="black"/>
<path d="M84.8012 12.2959V9.77344H69.7363V24.7122H78.3474C80.4742 24.7122 82.4116 24.5592 83.9761 24.2898C85.5345 24.0265 86.659 22.6551 86.659 21.0755C85.0089 21.7673 82.0693 22.1898 78.5858 22.1898H72.676V18.4306H83.7194V15.9938H72.676V12.2959H84.8012Z" fill="black"/>
<path d="M74.0027 31.837V27.0859H71.002V34.4819H90.7787C92.2394 34.4819 93.4189 33.3002 93.4189 31.837H74.0027Z" fill="black"/>
<path d="M91.8494 28.2855C92.3811 28.2855 92.815 27.8508 92.815 27.3182V9.14062H89.8448V15.3059H85.4629V17.9508H89.8448V28.2916H91.8494V28.2855Z" fill="black"/>
<path d="M13.8778 47.571L15.5034 50.2466H16.084L17.7158 47.5037L17.7219 50.8343H18.9259L18.9137 45.2812H17.8564L15.809 48.7343L13.7372 45.2812H12.6738V50.8343H13.8778V47.571Z" fill="black"/>
<path d="M29.2421 45.5571C28.7837 45.306 28.2642 45.1836 27.6898 45.1836C27.1153 45.1836 26.5958 45.306 26.1313 45.5571C25.6669 45.8081 25.3063 46.1509 25.0435 46.5856C24.7807 47.0203 24.6523 47.5162 24.6523 48.0611C24.6523 48.606 24.7807 49.0958 25.0435 49.5367C25.3063 49.9713 25.6669 50.3142 26.1313 50.5652C26.5958 50.8162 27.1153 50.9387 27.6898 50.9387C28.2642 50.9387 28.7837 50.8162 29.2421 50.5652C29.7004 50.3142 30.061 49.9713 30.3299 49.5367C30.5927 49.102 30.7272 48.6122 30.7272 48.0611C30.7272 47.5101 30.5927 47.0264 30.3299 46.5856C30.0671 46.1509 29.7065 45.8081 29.2421 45.5571ZM29.1993 48.9795C29.0465 49.2489 28.8387 49.4632 28.5759 49.6101C28.3131 49.7632 28.0137 49.8367 27.6898 49.8367C27.3658 49.8367 27.0664 49.7632 26.8036 49.6101C26.5408 49.4571 26.333 49.2489 26.1802 48.9795C26.0274 48.7101 25.9541 48.404 25.9541 48.0611C25.9541 47.7183 26.0274 47.4122 26.1802 47.1428C26.333 46.8734 26.5408 46.6591 26.8036 46.5122C27.0664 46.3591 27.3658 46.2856 27.6898 46.2856C28.0137 46.2856 28.3131 46.3591 28.5759 46.5122C28.8387 46.6652 29.0465 46.8734 29.1993 47.1428C29.3521 47.4122 29.4254 47.7183 29.4254 48.0611C29.4254 48.404 29.3521 48.7101 29.1993 48.9795Z" fill="black"/>
<path d="M40.9575 48.3608C41.1531 48.0608 41.257 47.7057 41.257 47.2955C41.257 46.8853 41.1592 46.5241 40.9637 46.2241C40.7681 45.9241 40.487 45.6915 40.1264 45.5261C39.7658 45.3608 39.338 45.2812 38.8491 45.2812H36.4473V50.8404H37.7307V49.2915H38.9102L39.9797 50.8404H41.3609L40.1142 49.0527C40.4809 48.8935 40.762 48.667 40.9575 48.367V48.3608ZM39.6558 48.0057C39.4541 48.1772 39.1608 48.2629 38.7757 48.2629H37.7307V46.3221H38.7757C39.1608 46.3221 39.4541 46.4078 39.6558 46.5731C39.8575 46.7384 39.9553 46.9772 39.9553 47.2894C39.9553 47.6017 39.8575 47.8343 39.6558 48.0057Z" fill="black"/>
<path d="M51.2198 46.3098V45.2812H47.0273V50.8343H51.3237V49.8057H48.3046V48.52H50.8776V47.5159H48.3046V46.3098H51.2198Z" fill="black"/>
<path d="M59.5365 50.8343V46.3282H61.3088V45.2812H56.4746V46.3282H58.2531V50.8343H59.5365Z" fill="black"/>
<path d="M66.6133 45.2812V48.3915C66.6133 49.2057 66.8333 49.8364 67.2733 50.271C67.7134 50.7057 68.3306 50.9323 69.1251 50.9323C69.9196 50.9323 70.5369 50.7119 70.9769 50.271C71.4169 49.8302 71.6369 49.2057 71.6369 48.3915V45.2812H70.3657V48.3486C70.3657 48.8629 70.2618 49.2364 70.0479 49.4813C69.834 49.72 69.5285 49.8425 69.1312 49.8425C68.3062 49.8425 67.8967 49.3466 67.8967 48.3486V45.2812H66.6133Z" fill="black"/>
<path d="M82.1802 48.3608C82.3758 48.0608 82.4797 47.7057 82.4797 47.2955C82.4797 46.8853 82.3819 46.5241 82.1863 46.2241C81.9908 45.9241 81.7096 45.6915 81.349 45.5261C80.9885 45.3608 80.5607 45.2812 80.0717 45.2812H77.6699V50.8404H78.9533V49.2915H80.1329L81.2024 50.8404H82.5836L81.3368 49.0527C81.7035 48.8935 81.9846 48.667 82.1802 48.367V48.3608ZM80.8785 48.0057C80.6768 48.1772 80.3834 48.2629 79.9984 48.2629H78.9533V46.3221H79.9984C80.3834 46.3221 80.6768 46.4078 80.8785 46.5731C81.0801 46.7384 81.1779 46.9772 81.1779 47.2894C81.1779 47.6017 81.0801 47.8343 80.8785 48.0057Z" fill="black"/>
<path d="M92.068 48.6547L89.3056 45.2812H88.2422V50.8343H89.5134V47.4608L92.2819 50.8343H93.3331V45.2812H92.068V48.6547Z" fill="black"/>
<path d="M92.9542 39.7266H13.2787C13.0281 39.7266 12.8203 39.9347 12.8203 40.1857C12.8203 40.4368 13.0281 40.6449 13.2787 40.6449H92.9542C93.2048 40.6449 93.4126 40.4368 93.4126 40.1857C93.4126 39.9347 93.2048 39.7266 92.9542 39.7266Z" fill="black"/>
<path d="M107.457 7.90408L105.398 4.32857L103.045 0.244898L100.692 4.32857L98.6322 7.90408C98.5039 8.13061 98.6628 8.41224 98.9256 8.41224H101.676V55.8061C101.676 56.602 101.034 57.2449 100.24 57.2449H3.25017V2.7551H90.1189C91.6407 2.7551 92.8691 1.52449 92.8691 0H0.5V60H101.725C103.21 60 104.42 58.7939 104.42 57.3061V8.41837H107.17C107.433 8.41837 107.592 8.13673 107.463 7.9102L107.457 7.90408Z" fill="black"/>
</svg>
