<svg width="160" height="120" viewBox="0 0 160 120" fill="none" xmlns="http://www.w3.org/2000/svg">
<path d="M132.736 72.135H122.547C120.05 72.135 117.958 70.4622 117.958 68.3433C117.958 67.284 118.498 66.336 119.308 65.6669C120.117 64.9979 121.265 64.5516 122.547 64.5516H124.032C125.313 64.5516 126.461 64.1056 127.27 63.4364C128.08 62.7675 128.62 61.8195 128.62 60.7602C128.62 58.697 126.596 56.9685 124.032 56.9685H92.9086C92.0956 56.9685 91.573 55.9846 91.573 55.1841C91.573 53.1768 89.616 51.5597 87.1866 51.5597H75.6048C75.3119 51.5597 75.031 51.4452 74.8239 51.2413C74.6168 51.0374 74.5004 50.7608 74.5004 50.4724C74.5004 50.1841 74.6168 49.9075 74.8239 49.7036C75.031 49.4997 75.3119 49.3852 75.6048 49.3852H119.983C121.94 49.3852 123.762 48.716 125.044 47.6567C126.326 46.5972 127.136 45.0918 127.136 43.4747C127.136 40.1849 123.897 37.5641 119.983 37.5641H97.0619C93.4657 37.5641 89.9058 34.832 86.3094 34.832H73.5123C71.6354 34.832 70.114 33.3341 70.114 31.4864C70.114 29.6388 71.6354 28.1409 73.5123 28.1409H102.168C103.517 28.1409 104.799 27.6947 105.676 26.9698C106.554 26.245 107.094 25.2414 107.094 24.0705C107.094 21.8401 104.867 20 102.168 20H36.1035C34.754 20 33.4718 20.446 32.5946 21.1709C31.7174 21.8957 31.1774 22.8996 31.1774 24.0705C31.1774 26.3009 33.4043 28.1409 36.1035 28.1409H37.7907C40.0174 28.1409 41.907 29.6463 41.907 31.5422C41.907 32.49 41.4345 33.3264 40.6923 33.9399C39.9501 34.5532 38.9379 34.9435 37.7907 34.9435H29.6255C28.2083 34.9435 26.8586 35.4453 25.9139 36.226C24.9691 37.0065 24.3619 38.0661 24.3619 39.2928C24.3619 41.6905 26.7236 43.5862 29.558 43.5862H37.8582C40.5573 43.5862 42.7842 45.4263 42.7842 47.6567C42.7842 48.7719 42.2443 49.7755 41.367 50.5004C40.4898 51.2252 39.2751 51.6713 37.9254 51.6713H30.5027C29.288 51.6713 28.2083 52.0616 27.3985 52.7308C26.5888 53.3998 26.1163 54.292 26.1163 55.2957C26.1163 57.303 28.0733 58.9201 30.5027 58.9201H36.5085C39.9501 58.9201 42.7167 61.2062 42.7167 64.0499C42.7167 65.4439 42.0418 66.7821 40.8948 67.6741C39.7476 68.6221 38.1954 69.1797 36.5085 69.1797H28.1408C26.4538 69.1797 24.9017 69.7373 23.8219 70.6853C22.6747 71.5774 22 72.8598 22 74.2538C22 77.0419 24.7667 79.328 28.1408 79.328H53.9786C56.8322 79.328 59.6352 80.8892 62.4888 80.8892H67.1948C68.9934 80.8892 70.4515 82.3247 70.4515 84.0954C70.4515 85.866 68.9934 87.3015 67.1948 87.3015H55.7405C54.2561 87.3015 52.9739 87.8034 52.0291 88.5839C51.0844 89.3646 50.477 90.4798 50.477 91.6507C50.477 94.0484 52.8389 96 55.7405 96H125.921C127.405 96 128.688 95.4981 129.632 94.7175C130.577 93.9368 131.184 92.8216 131.184 91.6507C131.184 89.2531 128.823 87.3015 125.921 87.3015H123.829C121.67 87.3015 119.983 85.8518 119.983 84.1233C119.983 83.2312 120.387 82.4505 121.13 81.8929C121.805 81.3353 122.817 80.9449 123.897 80.9449H132.736C134.221 80.9449 135.503 80.4432 136.448 79.6624C137.393 78.8819 138 77.7667 138 76.5958C138 74.0866 135.638 72.135 132.736 72.135Z" fill="white"/>
<path d="M109 30.385V88.2994C109 92.5241 105.549 96 101.236 96H98.702C97.1384 96 95.8443 95.1444 94.7661 94.0213C93.0407 92.1498 92.1241 89.6899 92.1241 87.123V80.4385C92.1241 77.7647 89.9134 75.5722 87.2176 75.5722H56V30.385C56 27.9787 57.995 26 60.4211 26H104.579C107.059 26 109 27.9787 109 30.385Z" fill="#1C2379"/>
<path d="M97 100H48.0039C42.4903 100 38 95.657 38 90.3246V84.0026C38 81.254 40.3304 79 43.1724 79H84.9499C87.7919 79 90.1223 81.254 90.1223 84.0026V90.8744C90.1223 93.4582 91.0886 96.0418 92.9076 97.966C93.9875 99.1204 95.3517 100 97 100Z" fill="#1C2379"/>
<path d="M68.5 45C70.433 45 72 43.433 72 41.5C72 39.567 70.433 38 68.5 38C66.567 38 65 39.567 65 41.5C65 43.433 66.567 45 68.5 45Z" fill="white"/>
<path d="M68.5 55C70.433 55 72 53.6569 72 52C72 50.3431 70.433 49 68.5 49C66.567 49 65 50.3431 65 52C65 53.6569 66.567 55 68.5 55Z" fill="white"/>
<path d="M68.5 65C70.433 65 72 63.6569 72 62C72 60.3431 70.433 59 68.5 59C66.567 59 65 60.3431 65 62C65 63.6569 66.567 65 68.5 65Z" fill="white"/>
<path d="M97.8496 38H79.1504C77.4105 38 76 39.567 76 41.5C76 43.433 77.4105 45 79.1504 45H97.8496C99.5895 45 101 43.433 101 41.5C101 39.567 99.5895 38 97.8496 38Z" fill="white"/>
<path d="M97.748 49H79.252C77.456 49 76 50.3431 76 52C76 53.6569 77.456 55 79.252 55H97.748C99.544 55 101 53.6569 101 52C101 50.3431 99.544 49 97.748 49Z" fill="white"/>
<path d="M97.8496 59H79.1504C77.4105 59 76 60.3431 76 62C76 63.6569 77.4105 65 79.1504 65H97.8496C99.5895 65 101 63.6569 101 62C101 60.3431 99.5895 59 97.8496 59Z" fill="white"/>
</svg>
