<svg width="72" height="72" viewBox="0 0 72 72" fill="none" xmlns="http://www.w3.org/2000/svg">
<path d="M44.76 5H22C18.69 5 16 7.69 16 11V61C16 64.31 18.69 67 22 67H56C59.31 67 62 64.31 62 61V22.24C62 21.44 61.68 20.68 61.12 20.12L46.88 5.88C46.32 5.32 45.55 5 44.76 5Z" fill="white" stroke="#1D1D1B" stroke-width="2" stroke-miterlimit="10"/>
<path d="M47 42H13C10.7909 42 9 43.7909 9 46V56C9 58.2091 10.7909 60 13 60H47C49.2091 60 51 58.2091 51 56V46C51 43.7909 49.2091 42 47 42Z" fill="#4258D7"/>
<path d="M15.6797 45.3398H20.1197C22.6897 45.3398 24.1697 46.9298 24.1697 49.1498C24.1697 51.3698 22.6697 52.9598 20.0597 52.9598H18.0297V56.6498H15.6897V45.3398H15.6797ZM19.6797 51.0698C21.0697 51.0698 21.7497 50.2898 21.7397 49.1498C21.7397 48.0298 21.0697 47.2698 19.6797 47.2598H18.0197V51.0698H19.6797Z" fill="white"/>
<path d="M25.6484 56.6616V45.3516H29.6784C33.0884 45.3516 35.1684 47.4716 35.1584 50.9916C35.1584 54.5316 33.0784 56.6616 29.6284 56.6616H25.6484ZM29.5384 54.6416C31.6984 54.6416 32.8184 53.5216 32.8184 50.9816C32.8184 48.4416 31.6984 47.3616 29.5484 47.3616H27.9884V54.6416H29.5384Z" fill="white"/>
<path d="M36.8711 45.3398H44.3211V47.2798H39.2111V50.0298H43.8311V51.9698H39.2111V56.6598H36.8711V45.3498V45.3398Z" fill="white"/>
<path d="M45 5V15.62C45 19.14 47.85 22 51.38 22H62" stroke="#1D1D1B" stroke-width="2" stroke-miterlimit="10"/>
</svg>
